<svg width="108" height="108" viewBox="0 0 108 108" fill="none" xmlns="http://www.w3.org/2000/svg">
<path d="M108 54C108 83.8234 83.8234 108 54 108C24.1766 108 0 83.8234 0 54C0 24.1766 24.1766 0 54 0C83.8234 0 108 24.1766 108 54ZM10.8 54C10.8 77.8587 30.1413 97.2 54 97.2C77.8587 97.2 97.2 77.8587 97.2 54C97.2 30.1413 77.8587 10.8 54 10.8C30.1413 10.8 10.8 30.1413 10.8 54Z" fill="#333333"/>
<path d="M108 54C108 64.6802 104.833 75.1205 98.8994 84.0008C92.9658 92.8811 84.5321 99.8024 74.6649 103.889C64.7977 107.977 53.9401 109.046 43.4651 106.962C32.9901 104.879 23.3683 99.7358 15.8162 92.1838C8.2642 84.6317 3.1212 75.0098 1.03759 64.5349C-1.04601 54.0599 0.0233731 43.2023 4.11051 33.3351C8.19764 23.4679 15.119 15.0342 23.9992 9.10064C32.8795 3.16704 43.3198 -1.2736e-07 54 0V10.8C45.4558 10.8 37.1036 13.3336 29.9994 18.0805C22.8952 22.8274 17.3581 29.5743 14.0884 37.4681C10.8187 45.3618 9.96319 54.0479 11.6301 62.4279C13.297 70.8079 17.4114 78.5054 23.453 84.547C29.4946 90.5886 37.1921 94.703 45.5721 96.3699C53.9521 98.0368 62.6382 97.1813 70.5319 93.9116C78.4257 90.6419 85.1726 85.1048 89.9195 78.0006C94.6664 70.8964 97.2 62.5442 97.2 54H108Z" fill="#FEC11A"/>
</svg>
