<svg width="108" height="108" viewBox="0 0 108 108" fill="none" xmlns="http://www.w3.org/2000/svg">
<path d="M108 54C108 83.8234 83.8234 108 54 108C24.1766 108 0 83.8234 0 54C0 24.1766 24.1766 0 54 0C83.8234 0 108 24.1766 108 54ZM10.8 54C10.8 77.8587 30.1413 97.2 54 97.2C77.8587 97.2 97.2 77.8587 97.2 54C97.2 30.1413 77.8587 10.8 54 10.8C30.1413 10.8 10.8 30.1413 10.8 54Z" fill="#333333"/>
<path d="M108 54C108 66.8618 103.409 79.3012 95.054 89.0795C86.6987 98.8578 75.1277 105.333 62.4233 107.339C49.719 109.345 36.7157 106.751 25.7538 100.023C14.7919 93.2957 6.59131 82.8763 2.62787 70.6404C-1.33557 58.4046 -0.801514 45.1558 4.13391 33.2787C9.06933 21.4015 18.082 11.676 29.5498 5.85242C41.0177 0.0288578 54.1875 -1.51027 66.6892 1.51205C79.1908 4.53437 90.2032 11.9196 97.7443 22.3387L88.9954 28.671C82.9625 20.3357 74.1526 14.4275 64.1513 12.0096C54.15 9.59178 43.6141 10.8231 34.4399 15.4819C25.2656 20.1408 18.0555 27.9212 14.1071 37.4229C10.1588 46.9247 9.73155 57.5237 12.9023 67.3124C16.073 77.101 22.6336 85.4366 31.4031 90.8187C40.1726 96.2009 50.5752 98.2762 60.7387 96.6712C70.9021 95.0662 80.159 89.8862 86.8432 82.0636C93.5274 74.241 97.2 64.2894 97.2 54H108Z" fill="#FEC11A"/>
</svg>
