<svg width="108" height="108" viewBox="0 0 108 108" fill="none" xmlns="http://www.w3.org/2000/svg">
<path d="M108 54C108 83.8234 83.8234 108 54 108C24.1766 108 0 83.8234 0 54C0 24.1766 24.1766 0 54 0C83.8234 0 108 24.1766 108 54ZM10.8 54C10.8 77.8587 30.1413 97.2 54 97.2C77.8587 97.2 97.2 77.8587 97.2 54C97.2 30.1413 77.8587 10.8 54 10.8C30.1413 10.8 10.8 30.1413 10.8 54Z" fill="#333333"/>
<path d="M108 54C108 65.4929 104.333 76.686 97.533 85.9512C90.7327 95.2164 81.1538 102.07 70.1896 105.516C59.2254 108.962 47.4478 108.819 36.57 105.11C25.6923 101.4 16.2818 94.3166 9.7075 84.8897C3.1332 75.4629 -0.262006 64.1844 0.0157751 52.6948C0.293556 41.2053 4.22983 30.104 11.252 21.0059C18.2742 11.9078 28.016 5.2874 39.0603 2.10776C50.1046 -1.07188 61.8753 -0.644912 72.6602 3.32657L68.9282 13.4613C60.3002 10.2841 50.8837 9.94249 42.0482 12.4862C33.2128 15.0299 25.4194 20.3262 19.8016 27.6047C14.1839 34.8832 11.0348 43.7642 10.8126 52.9559C10.5904 62.1475 13.3066 71.1703 18.566 78.7118C23.8254 86.2532 31.3538 91.92 40.056 94.8877C48.7582 97.8554 58.1803 97.9693 66.9517 95.2128C75.723 92.4563 83.3862 86.9731 88.8264 79.561C94.2666 72.1488 97.2 63.1943 97.2 54H108Z" fill="#FEC11A"/>
</svg>
