<?xml version="1.0" encoding="utf-8"?>
<!-- Generator: Adobe Illustrator 23.0.3, SVG Export Plug-In . SVG Version: 6.00 Build 0)  -->
<svg version="1.1" id="katman_1" xmlns="http://www.w3.org/2000/svg" xmlns:xlink="http://www.w3.org/1999/xlink" x="0px" y="0px"
	 viewBox="0 0 1080 1080" style="enable-background:new 0 0 1080 1080;" xml:space="preserve">
<style type="text/css">
	.st0{fill:#1A1A1A;}
</style>
<path class="st0" d="M610.3,449.8v140.9c0,9.6-7.7,17.3-17.3,17.3H351c-9.6,0-17.3,7.7-17.3,17.3v174c0,9.6-7.7,17.3-17.3,17.3
	H154.2c-9.6,0-17.3-7.7-17.3-17.3v-558c0-9.6,7.7-17.3,17.3-17.3h162.2c9.6,0,17.3,7.7,17.3,17.3v174c0,9.6,7.7,17.3,17.3,17.3h242
	C602.6,432.5,610.3,440.2,610.3,449.8z"/>
<g>
	<path class="st0" d="M368.8,412.8h558.3c8.8,0,16-7.2,16-16V239.9c0-8.8-7.2-16-16-16H368.8c-8.8,0-16,7.2-16,16v156.9
		C352.8,405.6,360,412.8,368.8,412.8z"/>
</g>
<path class="st0" d="M777.1,765.4c-77.8,0-143.1-53.4-161.4-125.5c-1.8-7.1-8.1-12.2-15.4-12.2H368.6c-8.7,0-15.8,7.1-15.8,15.8
	v157.2c0,8.7,7.1,15.8,15.8,15.8h558.6c8.7,0,15.8-7.1,15.8-15.8V627.7h-2C927.4,705.9,859.3,765.4,777.1,765.4z"/>
<path class="st0" d="M777.9,433.1c-85.3,0-154.4,69.1-154.4,154.4S692.6,742,777.9,742s154.4-69.1,154.4-154.4
	S863.2,433.1,777.9,433.1z M777.9,629.4c-22.7,0-41.1-18.4-41.1-41.1c0-22.7,18.4-41.1,41.1-41.1c22.7,0,41.1,18.4,41.1,41.1
	C819,611,800.6,629.4,777.9,629.4z"/>
</svg>
