<svg width="1440" height="189" viewBox="0 0 1440 189" fill="none" xmlns="http://www.w3.org/2000/svg">
<path d="M-5 0.456026L25.125 4.35948C55.25 8.55753 115.5 15.9225 175.75 12.24C236 8.55751 296.25 -7.6455 356.5 4.35945C416.75 15.9225 477 55.6935 537.25 63.2795C597.5 71.16 657.75 47.592 718 55.4725C778.25 63.0585 838.5 102.83 898.75 122.199C959 141.864 1019.25 141.864 1079.5 122.199C1139.75 102.829 1200 63.0585 1260.25 47.5919C1320.5 32.1254 1380.75 39.4904 1410.88 43.6885L1441 47.5919L1441 189L1410.88 189C1380.75 189 1320.5 189 1260.25 189C1200 189 1139.75 189 1079.5 189C1019.25 189 959 189 898.75 189C838.5 189 778.25 189 718 189C657.75 189 597.5 189 537.25 189C477 189 416.75 189 356.5 189C296.25 189 236 189 175.75 189C115.5 189 55.25 189 25.125 189L-4.99998 189L-5 0.456026Z" fill="#4F4F4F"/>
</svg>
