<svg width="1440" height="211" viewBox="0 0 1440 211" fill="none" xmlns="http://www.w3.org/2000/svg">
<path d="M-5 0.509108L25.1042 4.86693C55.2083 9.55364 115.417 17.7759 175.625 13.6648C235.833 9.55362 296.042 -8.53545 356.25 4.8669C416.458 17.7759 476.667 62.1764 536.875 70.6453C597.083 79.4432 657.292 53.1318 717.5 61.9297C777.708 70.3986 837.917 114.799 898.125 136.424C958.333 158.377 1018.54 158.377 1078.75 136.424C1138.96 114.799 1199.17 70.3986 1259.38 53.1318C1319.58 35.8649 1379.79 44.0872 1409.9 48.7739L1440 53.1317L1440 211L1409.9 211C1379.79 211 1319.58 211 1259.38 211C1199.17 211 1138.96 211 1078.75 211C1018.54 211 958.333 211 898.125 211C837.917 211 777.708 211 717.5 211C657.292 211 597.083 211 536.875 211C476.667 211 416.458 211 356.25 211C296.042 211 235.833 211 175.625 211C115.417 211 55.2084 211 25.1042 211L-4.99998 211L-5 0.509108Z" fill="white"/>
</svg>
